<?xml version="1.0" encoding="UTF-8" standalone="no"?>
<!-- Generator: Adobe Illustrator 19.0.0, SVG Export Plug-In . SVG Version: 6.00 Build 0)  -->

<svg
   version="1.1"
   id="Layer_1"
   x="0px"
   y="0px"
   viewBox="0 0 1200 800"
   xml:space="preserve"
   sodipodi:docname="Welcome.svg"
   inkscape:version="1.1.2 (1:1.1+202202050950+0a00cf5339)"
   width="1200"
   height="800"
   xmlns:inkscape="http://www.inkscape.org/namespaces/inkscape"
   xmlns:sodipodi="http://sodipodi.sourceforge.net/DTD/sodipodi-0.dtd"
   xmlns="http://www.w3.org/2000/svg"
   xmlns:svg="http://www.w3.org/2000/svg"><defs
   id="defs43" /><sodipodi:namedview
   id="namedview41"
   pagecolor="#ffffff"
   bordercolor="#999999"
   borderopacity="1"
   inkscape:pageshadow="0"
   inkscape:pageopacity="0"
   inkscape:pagecheckerboard="0"
   showgrid="false"
   inkscape:zoom="0.28133334"
   inkscape:cx="499.40758"
   inkscape:cy="837.0853"
   inkscape:window-width="1920"
   inkscape:window-height="1016"
   inkscape:window-x="0"
   inkscape:window-y="27"
   inkscape:window-maximized="1"
   inkscape:current-layer="Layer_1" />
<g
   id="XMLID_1_"
   style="fill:#ffffff;stroke:#000000"
   transform="translate(-150.61792,-349.73012)">
	<path
   id="XMLID_4038_"
   style="fill:#ffffff;stroke:#000000"
   d="m 1198.144,777.978 c -19.03,3.578 -38.702,12.733 -54.955,28.321 -24.453,23.452 -45.275,49.882 -62.098,79.306 -14.409,25.202 -31.11,48.514 -54.045,66.644 -21.406,16.922 -45.933,25.116 -73.249,21.765 -23.532,-2.887 -40.597,-15.48 -49.705,-37.833 -1.718,-4.216 -2.005,-8.655 3.034,-10.92 5.056,-2.273 8.716,0.785 10.027,5.043 4.263,13.851 11.125,24.982 25.928,29.505 20.59,6.291 40.745,5.334 60.212,-3.86 26.844,-12.679 45.098,-34.67 59.754,-59.29 18.836,-31.642 40.35,-61.077 64.9,-88.418 19.163,-21.341 42.707,-35.203 70.512,-42.005 29.266,-7.16 58.806,13.939 67.589,48.34 6.223,24.375 -8.654,49.391 -32.883,55.294 -11.204,2.73 -22.906,-2.705 -27.941,-13.064 -2.274,-4.678 -2.552,-9.453 0.087,-14.106 1.873,-3.302 4.429,-5.811 8.603,-5.301 4.335,0.53 5.646,3.676 6.39,7.529 2.644,13.68 8.373,16.226 20.263,9.21 10.881,-6.42 16.052,-15.918 15.46,-28.546 -1.427,-30.497 -25.54,-51.62 -57.883,-47.614 z" />
	<path
   id="XMLID_3996_"
   style="fill:#ffffff;stroke:#000000"
   d="m 977.391,947.519 c -16.343,1.98 -31.923,-5.883 -37.913,-18.16 -2.416,-4.952 -3.525,-10.091 0.768,-14.564 4.262,-4.441 9.411,-3.934 14.444,-1.389 3.193,1.615 6.615,3.157 9.196,5.533 9.848,9.067 20.453,8.599 31.776,3.477 13.658,-6.178 25.214,-15.044 34.266,-26.966 12.039,-15.855 23.788,-31.931 35.778,-47.824 2.234,-2.962 4.605,-8.029 9.039,-5.233 5.038,3.177 1.245,7.844 -0.87,11.108 -19.254,29.704 -40.856,57.476 -68.534,79.93 -8.661,7.028 -18.356,12.474 -27.95,14.088 z" />
	<path
   id="XMLID_4246_"
   style="fill:#ffffff;stroke:#000000"
   d="m 289.609,786.275 c 19.03,3.578 38.702,12.733 54.955,28.321 24.453,23.452 45.275,49.882 62.098,79.306 14.409,25.202 31.11,48.514 54.045,66.644 21.406,16.922 45.933,25.116 73.249,21.765 23.532,-2.887 40.597,-15.479 49.705,-37.833 1.718,-4.216 2.005,-8.655 -3.034,-10.92 -5.056,-2.273 -8.716,0.784 -10.027,5.043 -4.263,13.851 -11.125,24.982 -25.928,29.505 -20.59,6.291 -40.745,5.334 -60.212,-3.86 -26.845,-12.679 -45.098,-34.67 -59.754,-59.29 -18.836,-31.642 -40.35,-61.077 -64.9,-88.418 -19.163,-21.341 -42.707,-35.203 -70.512,-42.005 -29.266,-7.16 -58.806,13.939 -67.589,48.34 -6.223,24.375 8.654,49.391 32.883,55.294 11.204,2.73 22.906,-2.705 27.941,-13.064 2.274,-4.678 2.552,-9.453 -0.087,-14.106 -1.873,-3.302 -4.429,-5.811 -8.603,-5.301 -4.335,0.53 -5.646,3.676 -6.39,7.529 -2.644,13.68 -8.373,16.226 -20.263,9.21 -10.881,-6.421 -16.052,-15.918 -15.46,-28.546 1.427,-30.497 25.54,-51.621 57.883,-47.614 z" />
	<path
   id="XMLID_3999_"
   style="fill:#ffffff;stroke:#000000"
   d="m 510.361,955.816 c 16.343,1.98 31.923,-5.883 37.913,-18.16 2.416,-4.952 3.525,-10.091 -0.768,-14.564 -4.262,-4.441 -9.411,-3.934 -14.444,-1.389 -3.193,1.615 -6.615,3.157 -9.196,5.533 -9.848,9.067 -20.453,8.599 -31.776,3.477 -13.658,-6.178 -25.214,-15.044 -34.266,-26.966 -12.039,-15.855 -23.788,-31.931 -35.778,-47.824 -2.234,-2.962 -4.605,-8.029 -9.04,-5.233 -5.038,3.177 -1.245,7.844 0.87,11.108 19.254,29.704 40.856,57.476 68.534,79.93 8.663,7.028 18.358,12.473 27.951,14.088 z" />
	<path
   id="XMLID_4155_"
   style="fill:#ffffff;stroke:#000000"
   d="m 892.271,983.98 c 3.886,-0.997 8.062,-0.378 11.424,-2.89 1.458,-1.089 3.704,-1.756 3.023,-4.032 -0.582,-1.943 -2.881,-1.757 -4.432,-1.825 -4.113,-0.182 -8.211,0.181 -12.051,1.965 -3.43,1.593 -9.158,-1.411 -9.628,-5.061 -0.23,-1.788 1.26,-1.463 2.301,-1.685 4.037,-0.86 8.056,-1.77 11.1,-4.896 0.795,-0.816 1.811,-1.584 1.361,-2.884 -0.449,-1.298 -1.687,-1.353 -2.846,-1.412 -4.642,-0.236 -8.98,0.929 -13.178,2.799 -2.416,1.076 -4.803,2.084 -6.269,-1.431 -0.366,-0.879 -1.434,-1.77 -2.43,-1.142 -1.193,0.752 -0.216,1.768 0.282,2.553 1.82,2.87 1.865,5.557 0.463,8.822 -1.909,4.444 -2.66,9.284 -1.521,14.17 0.247,1.058 0.386,2.437 1.797,2.622 1.548,0.203 2.245,-0.961 2.725,-2.211 1.422,-3.704 3.018,-7.359 3.098,-11.508 5.141,2.569 6.558,5.633 4.819,10.456 -1.865,5.174 -1.144,10.047 1.37,14.784 0.537,1.011 1.061,2.243 2.368,2.177 1.582,-0.08 1.871,-1.614 2.188,-2.789 0.896,-3.328 0.898,-6.732 0.578,-10.147 -0.099,-1.052 -0.885,-2.173 0.446,-3.374 3.437,2.65 6.77,4.824 5.464,10.469 -1.116,4.826 0.936,9.487 3.784,13.57 0.712,1.021 1.403,2.435 2.936,1.997 1.537,-0.439 1.165,-2.029 1.466,-3.237 1.038,-4.159 -0.82,-8.105 -0.871,-12.211 5.431,1.517 6.928,3.429 7.126,8.72 0.176,4.71 0.393,9.44 4.029,13.096 0.885,0.889 1.699,2.129 3.213,1.44 1.399,-0.638 1.346,-2.006 1.36,-3.309 0.042,-3.856 -1.262,-7.501 -1.804,-11.289 5.731,0.773 7.303,2.487 8.081,7.993 0.721,5.102 3.92,8.668 7.927,11.595 0.891,0.65 1.917,0.655 2.782,-0.01 1.031,-0.793 0.991,-1.912 0.754,-3.107 -0.727,-3.664 -2.442,-6.87 -4.744,-9.889 5.548,-1.098 9.062,0.797 10.417,5.605 1.454,5.159 3.998,9.383 9.175,11.534 2.477,1.029 3.439,0.125 3.229,-2.492 -0.253,-3.138 -2.059,-5.545 -3.572,-8.098 -0.619,-1.044 -1.329,-2.035 -2.276,-3.473 4.607,0.45 8.134,0.988 10.296,5.352 2.186,4.412 5.843,7.687 10.993,8.683 1.084,0.21 2.328,0.678 3.179,-0.399 0.739,-0.935 10e-4,-1.885 -0.343,-2.796 -1.345,-3.561 -3.681,-6.338 -7.102,-8.388 5.601,-2.337 9.389,-1.26 12.208,3.095 2.563,3.959 5.105,7.957 10.596,8.268 1.142,0.064 2.327,0.602 3.072,-0.567 0.75,-1.177 0.578,-2.496 -0.286,-3.594 -2.445,-3.11 -4.744,-6.365 -8.289,-8.49 4.171,-2.904 6.576,-2.801 9.353,0.951 3.153,4.261 7.606,5.72 12.411,6.615 1.153,0.215 2.665,0.599 3.37,-0.961 0.544,-1.206 -0.247,-2.137 -0.843,-3.123 -2.394,-3.965 -7.207,-4.313 -11.147,-7.691 4.863,-0.469 8.771,-3.728 13.165,0.831 2.227,2.311 5.898,2.692 9.255,2.379 1.381,-0.128 3.051,-0.283 3.497,-1.938 0.504,-1.871 -1.012,-2.794 -2.303,-3.669 -1.779,-1.206 -3.911,-1.549 -6.682,-2.214 3.604,-2.257 7.22,-2.35 10.402,-3.573 4.193,-1.61 5.447,-5.617 8.247,-8.297 1.236,-1.183 -0.306,-2.159 -1.775,-2.357 -3.088,-0.417 -5.973,0.119 -8.43,2.076 -2.655,2.115 -5.573,3.984 -7.289,7.079 -0.466,0.84 -1.24,1.093 -2.703,1.053 1.409,-2.586 2.896,-4.915 3.306,-7.619 0.191,-1.258 0.411,-2.668 -0.862,-3.506 -1.323,-0.87 -2.449,-0.009 -3.456,0.794 -3.211,2.561 -5.742,5.825 -6.301,9.826 -0.639,4.578 -3.355,5.278 -7.424,5.465 1.497,-2.555 3.036,-4.629 3.631,-7.147 0.377,-1.594 1.618,-3.516 -0.109,-4.682 -1.709,-1.154 -3.172,0.683 -4.5,1.584 -3.058,2.074 -5.065,5.12 -5.85,8.629 -1.054,4.706 -4.222,5.19 -8.631,5.019 2.315,-2.935 4.497,-5.48 5.669,-8.652 0.566,-1.532 1.148,-3.092 -0.366,-4.281 -1.579,-1.241 -2.881,-0.003 -4.215,0.818 -3.336,2.051 -5.43,5.127 -6.272,8.772 -1.054,4.563 -3.951,5.276 -7.862,4.784 -1.37,-0.172 -2.826,0.174 -4.387,-0.895 2.995,-2.484 4.951,-5.519 6.286,-8.97 0.359,-0.927 1.038,-1.898 0.285,-2.788 -0.856,-1.011 -2.085,-0.727 -3.156,-0.293 -3.761,1.524 -7.648,3.365 -8.869,7.43 -1.406,4.682 -4.209,5.029 -8.085,4.076 -1.361,-0.335 -2.758,-0.522 -4.765,-0.893 5.975,-2.121 7.696,-6.989 9.66,-11.596 0.907,-2.129 0.004,-2.852 -2.258,-2.336 -4.023,0.918 -6.681,3.378 -8.809,6.8 -3.669,5.902 -5.198,6.266 -11.479,3.124 3.847,-2.675 7.113,-5.732 9.203,-9.862 0.512,-1.011 1.459,-1.945 0.681,-3.091 -0.877,-1.291 -2.278,-1.001 -3.492,-0.599 -4.5,1.49 -7.622,4.822 -10.683,8.203 -1.141,1.261 -2.093,2.849 -4.119,2.548 -1.376,-0.204 -3.206,-0.323 -3.52,-1.873 -0.353,-1.741 1.553,-1.599 2.656,-2.053 4.308,-1.776 6.239,-5.851 8.001,-9.536 1.33,-2.782 -1.702,-2.522 -3.369,-2.061 -4.153,1.148 -7.773,3.279 -11.01,6.195 -4.503,4.057 -6.231,3.753 -10.9,-1.784 3.999,-0.64 7.448,-2.027 10.177,-4.783 1.001,-1.01 2.385,-1.951 1.882,-3.542 -0.556,-1.76 -2.311,-1.397 -3.665,-1.327 -3.818,0.196 -7.585,0.39 -11.085,2.445 -4.897,2.876 -5.68,2.558 -10.254,-2.634 z" />
	<path
   id="XMLID_4256_"
   style="fill:#ffffff;stroke:#000000"
   d="m 602.741,981.767 c -3.886,-0.997 -8.062,-0.378 -11.424,-2.89 -1.458,-1.089 -3.704,-1.756 -3.023,-4.032 0.582,-1.943 2.881,-1.757 4.432,-1.825 4.113,-0.182 8.211,0.181 12.051,1.965 3.43,1.593 9.158,-1.411 9.628,-5.061 0.23,-1.788 -1.26,-1.463 -2.301,-1.685 -4.037,-0.86 -8.056,-1.77 -11.1,-4.896 -0.795,-0.816 -1.811,-1.584 -1.361,-2.884 0.449,-1.298 1.687,-1.353 2.846,-1.412 4.642,-0.236 8.98,0.929 13.178,2.799 2.416,1.076 4.803,2.084 6.269,-1.431 0.366,-0.879 1.434,-1.77 2.43,-1.142 1.193,0.752 0.216,1.768 -0.282,2.553 -1.82,2.87 -1.865,5.557 -0.463,8.822 1.909,4.443 2.66,9.284 1.521,14.17 -0.247,1.058 -0.386,2.437 -1.797,2.622 -1.548,0.203 -2.245,-0.961 -2.725,-2.211 -1.422,-3.704 -3.018,-7.359 -3.098,-11.508 -5.141,2.569 -6.558,5.633 -4.819,10.456 1.865,5.174 1.144,10.047 -1.37,14.784 -0.537,1.011 -1.061,2.243 -2.367,2.177 -1.582,-0.08 -1.871,-1.614 -2.188,-2.789 -0.896,-3.328 -0.898,-6.732 -0.578,-10.147 0.099,-1.052 0.885,-2.173 -0.446,-3.374 -3.437,2.65 -6.77,4.824 -5.464,10.469 1.116,4.826 -0.936,9.487 -3.784,13.57 -0.712,1.021 -1.403,2.435 -2.936,1.997 -1.537,-0.439 -1.165,-2.029 -1.466,-3.237 -1.038,-4.159 0.82,-8.105 0.871,-12.211 -5.431,1.517 -6.928,3.429 -7.126,8.72 -0.176,4.71 -0.393,9.44 -4.029,13.096 -0.884,0.889 -1.699,2.129 -3.213,1.44 -1.399,-0.638 -1.346,-2.006 -1.36,-3.309 -0.042,-3.855 1.262,-7.501 1.805,-11.289 -5.731,0.773 -7.303,2.487 -8.081,7.993 -0.721,5.101 -3.92,8.668 -7.927,11.595 -0.891,0.65 -1.917,0.655 -2.782,-0.01 -1.031,-0.793 -0.991,-1.912 -0.754,-3.107 0.727,-3.664 2.442,-6.87 4.744,-9.889 -5.548,-1.099 -9.062,0.797 -10.417,5.605 -1.454,5.159 -3.998,9.383 -9.175,11.534 -2.477,1.029 -3.439,0.125 -3.229,-2.492 0.253,-3.138 2.059,-5.545 3.572,-8.098 0.619,-1.044 1.329,-2.035 2.276,-3.473 -4.607,0.45 -8.135,0.988 -10.296,5.352 -2.186,4.412 -5.843,7.686 -10.993,8.683 -1.084,0.21 -2.328,0.678 -3.179,-0.399 -0.739,-0.935 -0.001,-1.885 0.343,-2.796 1.345,-3.561 3.681,-6.338 7.102,-8.388 -5.601,-2.337 -9.389,-1.26 -12.208,3.095 -2.563,3.959 -5.105,7.957 -10.596,8.267 -1.142,0.065 -2.327,0.602 -3.072,-0.567 -0.75,-1.177 -0.578,-2.496 0.286,-3.594 2.445,-3.11 4.744,-6.365 8.289,-8.49 -4.171,-2.904 -6.576,-2.801 -9.353,0.951 -3.153,4.261 -7.606,5.72 -12.411,6.615 -1.153,0.215 -2.665,0.599 -3.37,-0.961 -0.544,-1.206 0.247,-2.137 0.843,-3.123 2.394,-3.965 7.207,-4.313 11.147,-7.691 -4.863,-0.469 -8.771,-3.728 -13.165,0.831 -2.227,2.311 -5.898,2.692 -9.255,2.379 -1.381,-0.128 -3.051,-0.283 -3.497,-1.938 -0.504,-1.871 1.012,-2.794 2.303,-3.669 1.779,-1.206 3.911,-1.549 6.682,-2.214 -3.604,-2.257 -7.22,-2.35 -10.402,-3.573 -4.193,-1.61 -5.447,-5.617 -8.247,-8.297 -1.236,-1.183 0.306,-2.159 1.775,-2.357 3.088,-0.417 5.973,0.119 8.43,2.076 2.655,2.115 5.573,3.984 7.289,7.079 0.466,0.84 1.24,1.093 2.703,1.053 -1.409,-2.586 -2.896,-4.915 -3.306,-7.619 -0.191,-1.258 -0.411,-2.668 0.863,-3.506 1.323,-0.87 2.449,-0.009 3.456,0.794 3.211,2.561 5.742,5.825 6.301,9.826 0.639,4.578 3.355,5.278 7.424,5.465 -1.498,-2.555 -3.036,-4.629 -3.631,-7.147 -0.377,-1.594 -1.618,-3.516 0.109,-4.682 1.709,-1.154 3.172,0.683 4.5,1.584 3.058,2.074 5.065,5.12 5.85,8.629 1.054,4.706 4.223,5.19 8.631,5.019 -2.315,-2.935 -4.497,-5.48 -5.669,-8.652 -0.566,-1.532 -1.148,-3.092 0.366,-4.281 1.579,-1.241 2.881,-0.003 4.215,0.818 3.336,2.051 5.429,5.127 6.272,8.772 1.054,4.563 3.951,5.276 7.862,4.784 1.37,-0.172 2.826,0.174 4.387,-0.895 -2.995,-2.484 -4.951,-5.519 -6.286,-8.97 -0.359,-0.927 -1.038,-1.898 -0.285,-2.788 0.856,-1.011 2.085,-0.727 3.156,-0.293 3.761,1.524 7.648,3.365 8.869,7.43 1.406,4.682 4.209,5.029 8.085,4.076 1.361,-0.335 2.758,-0.522 4.765,-0.893 -5.975,-2.121 -7.696,-6.989 -9.66,-11.596 -0.907,-2.129 -0.004,-2.852 2.258,-2.336 4.023,0.918 6.681,3.378 8.809,6.8 3.669,5.902 5.198,6.266 11.479,3.124 -3.847,-2.675 -7.113,-5.732 -9.203,-9.862 -0.512,-1.012 -1.459,-1.945 -0.681,-3.091 0.877,-1.291 2.278,-1.001 3.492,-0.599 4.5,1.49 7.622,4.822 10.683,8.203 1.141,1.261 2.093,2.849 4.119,2.549 1.376,-0.204 3.206,-0.323 3.52,-1.873 0.353,-1.74 -1.553,-1.599 -2.656,-2.053 -4.308,-1.776 -6.239,-5.851 -8.001,-9.536 -1.33,-2.782 1.702,-2.522 3.369,-2.061 4.153,1.148 7.773,3.279 11.01,6.195 4.503,4.057 6.231,3.753 10.9,-1.784 -3.999,-0.64 -7.448,-2.027 -10.177,-4.783 -1.001,-1.01 -2.385,-1.951 -1.882,-3.542 0.556,-1.76 2.311,-1.397 3.665,-1.327 3.818,0.196 7.585,0.39 11.085,2.445 4.894,2.875 5.678,2.558 10.251,-2.634 z" />
	<g
   id="XMLID_31_"
   style="fill:#ffffff;stroke:#000000">
		<path
   id="XMLID_32_"
   style="fill:#ffffff;stroke:#000000"
   d="m 669.137,717.929 c 3.022,-5.396 6.476,-10.81 10.361,-16.244 3.886,-5.432 8.058,-10.092 12.52,-13.978 4.461,-3.885 9.102,-6.188 13.923,-6.908 3.597,-0.359 6.601,0.216 9.013,1.727 2.41,1.511 4.334,3.815 5.774,6.908 0.287,0.72 0.61,1.044 0.971,0.971 0.359,-0.071 0.755,-0.251 1.187,-0.54 0.144,-0.071 0.251,-0.143 0.324,-0.216 0.071,-0.071 0.143,-0.108 0.216,-0.108 0.287,-0.216 0.54,-0.449 0.755,-0.702 0.216,-0.251 0.27,-0.61 0.162,-1.079 -0.108,-0.467 -0.523,-1.096 -1.241,-1.889 -5.758,-6.403 -11.711,-10.127 -17.863,-11.171 -6.152,-1.042 -12.288,-0.162 -18.403,2.645 -6.117,2.806 -11.945,6.746 -17.485,11.818 -5.542,5.073 -10.507,10.561 -14.895,16.46 -4.39,5.901 -7.952,11.441 -10.686,16.622 -4.965,9.859 -11.586,24.25 -19.859,43.173 -4.678,10.577 -9.571,21.516 -14.679,32.812 -5.11,11.297 -10.218,22.055 -15.326,32.271 -5.11,10.217 -9.984,19.031 -14.625,26.443 -4.641,7.41 -8.796,12.591 -12.466,15.542 -0.288,0.216 -0.577,0.432 -0.863,0.647 4.82,-5.181 8.4,-11.603 10.739,-19.266 2.337,-7.663 3.939,-16.063 4.803,-25.202 0.863,-9.137 1.511,-18.492 1.942,-28.063 0.287,-8.705 0.81,-17.196 1.565,-25.472 0.755,-8.274 2.05,-15.884 3.885,-22.828 1.835,-6.942 4.623,-12.86 8.365,-17.754 3.454,-3.813 7.231,-6.547 11.333,-8.203 0.216,-0.648 0.054,-1.241 -0.486,-1.781 -0.54,-0.54 -1.206,-0.772 -1.997,-0.702 -7.555,3.743 -14.068,9.121 -19.536,16.136 -5.469,7.016 -10.362,15.129 -14.679,24.338 -4.317,9.212 -8.456,18.854 -12.413,28.926 -3.958,9.859 -8.149,19.608 -12.574,29.25 -4.425,9.644 -9.535,18.636 -15.326,26.983 -5.793,8.346 -12.682,15.505 -20.669,21.479 -3.383,2.59 -7.196,4.533 -11.441,5.828 2.518,-1.872 4.82,-4.139 6.908,-6.8 6.403,-8.06 12.124,-17.773 17.161,-29.142 5.036,-11.368 9.174,-23.564 12.412,-36.589 3.238,-13.022 5.343,-26.102 6.314,-39.233 0.972,-13.131 0.611,-25.507 -1.079,-37.128 -1.691,-11.62 -4.983,-21.73 -9.876,-30.329 -4.894,-8.598 -11.603,-14.876 -20.129,-18.834 -8.526,-3.956 -19.087,-4.784 -31.678,-2.482 -11.945,2.375 -22.271,6.945 -30.977,13.708 -8.707,6.765 -15.776,14.841 -21.208,24.231 -5.434,9.39 -9.247,19.266 -11.441,29.627 -2.196,10.361 -2.79,20.345 -1.781,29.951 1.007,9.606 3.579,17.989 7.717,25.148 4.137,7.16 9.857,12.25 17.162,15.272 7.302,3.022 16.171,3.13 26.605,0.323 4.965,-1.223 9.876,-3.939 14.733,-8.148 4.857,-4.209 8.958,-9.677 12.304,-16.405 3.346,-6.728 5.252,-14.553 5.721,-23.476 0.467,-8.922 -1.206,-18.743 -5.019,-29.465 -0.361,-1.511 -1.206,-2.482 -2.536,-2.914 -1.333,-0.432 -2.627,-0.359 -3.886,0.216 -1.26,0.577 -1.889,1.583 -1.889,3.022 3.885,9.93 5.953,19.015 6.206,27.253 0.251,8.239 -0.828,15.471 -3.238,21.694 -2.412,6.225 -5.649,11.315 -9.714,15.272 -4.066,3.958 -8.437,6.621 -13.114,7.986 -5.181,1.512 -10.11,1.403 -14.787,-0.323 -4.678,-1.728 -8.545,-4.981 -11.603,-9.768 -3.06,-4.785 -4.625,-10.956 -4.695,-18.511 0,-7.267 1.007,-15.128 3.022,-23.583 2.014,-8.454 4.803,-16.945 8.365,-25.472 3.562,-8.526 7.645,-16.459 12.25,-23.799 4.604,-7.339 9.515,-13.455 14.733,-18.349 5.216,-4.893 10.505,-7.95 15.866,-9.174 5.359,-1.223 10.559,0 15.596,3.67 5.036,3.669 9.677,10.361 13.923,20.075 3.524,8.635 5.828,18.745 6.908,30.329 1.079,11.586 1.025,23.836 -0.162,36.751 -1.188,12.916 -3.346,25.616 -6.476,38.1 -3.13,12.485 -7.106,23.891 -11.926,34.215 -4.822,10.324 -10.326,18.708 -16.514,25.148 -6.189,6.438 -12.952,10.092 -20.292,10.955 -0.432,0.286 -0.631,0.594 -0.594,0.917 0.036,0.324 0.378,0.594 1.025,0.81 4.965,1.366 9.75,1.763 14.355,1.188 9.642,0.647 18.241,-0.666 25.796,-3.939 7.555,-3.275 14.283,-8.024 20.184,-14.247 5.899,-6.225 11.188,-13.421 15.866,-21.587 4.676,-8.166 8.939,-16.8 12.79,-25.903 3.849,-9.102 7.501,-18.223 10.956,-27.361 2.375,-6.188 4.749,-12.196 7.124,-18.024 -0.577,7.339 -1.08,15.075 -1.511,23.205 -0.432,9.859 -1.098,19.644 -1.997,29.358 -0.901,9.714 -2.429,18.618 -4.587,26.713 -2.158,8.095 -5.361,14.642 -9.606,19.644 -4.247,5 -9.967,7.753 -17.161,8.257 -0.145,0.071 -0.342,0.306 -0.594,0.701 -0.253,0.396 -0.378,0.827 -0.378,1.296 0,0.467 0.251,0.81 0.756,1.025 1.15,0.286 2.769,0.502 4.857,0.647 0.718,0.07 1.403,0.144 2.051,0.216 h 0.108 c 2.59,0.216 5.234,0.251 7.933,0.107 2.698,-0.145 4.55,-0.288 5.558,-0.432 5.54,-0.647 11.026,-2.304 16.46,-4.965 5.432,-2.663 10.271,-6.476 14.517,-11.44 5.108,-6.405 10.378,-14.554 15.812,-24.447 5.432,-9.893 10.901,-20.65 16.406,-32.271 5.504,-11.619 10.847,-23.187 16.028,-34.7 7.483,-16.692 14.247,-31.012 20.292,-42.957 1.873,-3.739 4.32,-8.31 7.342,-13.706 z" />
		<path
   id="XMLID_43_"
   style="fill:#ffffff;stroke:#000000"
   d="m 1091.314,783.228 c -0.396,-0.575 -0.99,-0.324 -1.781,0.755 -1.295,2.016 -2.771,4.354 -4.425,7.016 -3.095,5.11 -6.584,10.542 -10.47,16.298 -0.288,0.433 -0.577,0.901 -0.863,1.403 -1.511,2.375 -3.599,5.308 -6.26,8.797 -2.663,3.491 -5.758,6.783 -9.282,9.876 -3.384,2.806 -6.999,4.336 -10.848,4.587 -3.851,0.253 -7.143,-1.169 -9.876,-4.264 -1.656,-2.302 -2.429,-5.27 -2.32,-8.904 0.107,-3.633 0.664,-7.302 1.673,-11.009 1.007,-3.705 1.979,-6.816 2.914,-9.336 1.438,3.453 3.759,5.342 6.962,5.666 3.201,0.324 6.654,-0.503 10.361,-2.482 3.705,-1.979 7.016,-4.749 9.93,-8.311 2.914,-3.563 4.857,-7.502 5.828,-11.819 0.972,-4.316 0.306,-8.597 -1.996,-12.844 -1.44,-2.59 -3.67,-4.568 -6.692,-5.937 -3.021,-1.365 -6.872,-2.05 -11.549,-2.05 -3.311,0 -6.404,0.701 -9.282,2.104 -2.878,1.403 -5.522,3.311 -7.933,5.72 -2.412,2.412 -4.587,5.2 -6.53,8.365 -3.314,5.411 -6.064,11.689 -8.265,18.815 -2.392,3.769 -4.955,7.708 -7.709,11.837 -3.885,5.829 -7.735,10.938 -11.548,15.327 -3.815,4.39 -7.269,6.979 -10.362,7.771 -2.015,0.361 -3.13,-0.701 -3.346,-3.184 -0.216,-2.483 0.395,-5.99 1.835,-10.523 l 4.749,-12.736 c 0.287,-0.934 0.683,-1.978 1.188,-3.13 0.863,-2.302 1.798,-4.856 2.806,-7.663 1.007,-2.807 1.853,-5.702 2.537,-8.688 0.683,-2.985 1.079,-5.883 1.187,-8.688 0.108,-2.807 -0.307,-5.324 -1.241,-7.556 -0.936,-2.229 -2.536,-4.01 -4.803,-5.343 -2.267,-1.33 -5.415,-1.996 -9.444,-1.996 -1.367,0 -3.113,0.323 -5.234,0.971 -2.123,0.647 -4.462,1.818 -7.016,3.508 -2.555,1.691 -5.164,4.048 -7.825,7.07 -2.663,3.021 -5.253,6.837 -7.771,11.44 -0.288,0.504 -0.539,0.972 -0.755,1.403 0.718,-3.093 1.15,-6.08 1.295,-8.959 0.144,-2.877 -0.234,-5.485 -1.133,-7.824 -0.901,-2.338 -2.482,-4.191 -4.749,-5.559 -2.267,-1.366 -5.488,-2.051 -9.66,-2.051 -1.295,0 -3.006,0.323 -5.127,0.971 -2.123,0.647 -4.462,1.818 -7.016,3.508 -2.555,1.691 -5.164,4.048 -7.825,7.07 -2.663,3.021 -5.253,6.837 -7.771,11.44 l 8.419,-22.989 h -20.184 l -11.447,31.017 c -1.377,1.858 -3.026,3.822 -4.958,5.895 -2.447,2.663 -5.037,4.695 -7.771,6.099 -2.735,1.403 -5.504,2.32 -8.311,2.752 1.366,-4.388 2.41,-8.688 3.13,-12.897 0.719,-4.21 1.079,-8.004 1.079,-11.387 0,-2.807 -0.396,-5.505 -1.187,-8.096 -0.793,-2.59 -2.034,-4.892 -3.724,-6.907 -1.692,-2.014 -3.869,-3.598 -6.53,-4.749 -2.663,-1.15 -5.901,-1.727 -9.714,-1.727 -3.67,0 -7.143,0.9 -10.416,2.698 -3.274,1.799 -6.297,4.228 -9.065,7.285 -2.771,3.06 -5.219,6.584 -7.34,10.577 -2.123,3.994 -3.886,8.187 -5.289,12.574 -0.276,0.864 -0.52,1.727 -0.761,2.591 -2.162,3.406 -4.469,6.955 -6.955,10.685 -0.288,0.433 -0.577,0.901 -0.863,1.403 -1.511,2.375 -3.599,5.308 -6.26,8.797 -2.663,3.491 -5.758,6.783 -9.282,9.876 -3.384,2.806 -6.999,4.336 -10.848,4.587 -3.851,0.253 -7.142,-1.169 -9.876,-4.264 -1.656,-2.014 -2.447,-5.162 -2.374,-9.443 0.07,-4.28 1.149,-9.553 3.237,-15.813 1.798,-5.396 3.921,-10.577 6.368,-15.542 2.445,-4.965 5.001,-9.013 7.663,-12.143 2.661,-3.13 5.217,-4.73 7.663,-4.803 3.238,0.216 5.324,1.457 6.261,3.724 0.935,2.267 1.169,4.856 0.701,7.771 -0.469,2.914 -1.206,5.451 -2.213,7.609 -0.432,0.793 -0.45,1.313 -0.054,1.565 0.395,0.253 0.918,0.415 1.565,0.485 0.144,0.072 0.251,0.108 0.323,0.108 0.071,0 0.144,0 0.216,0 0.648,0.216 1.277,0.307 1.89,0.27 0.61,-0.035 1.061,-0.378 1.349,-1.025 1.511,-2.877 2.499,-5.918 2.968,-9.12 0.468,-3.201 0.198,-6.385 -0.809,-9.553 -1.08,-3.524 -3.238,-6.26 -6.477,-8.202 -3.237,-1.943 -7.628,-2.914 -13.168,-2.914 -4.03,0 -7.717,1.008 -11.063,3.021 -3.346,2.016 -6.352,4.695 -9.013,8.041 -2.663,3.346 -5.002,7.088 -7.016,11.226 -1.811,3.718 -3.314,7.544 -4.544,11.465 -2.533,4.078 -5.294,8.365 -8.301,12.873 -3.884,5.829 -7.753,10.938 -11.602,15.327 -3.85,4.39 -7.285,6.979 -10.308,7.771 -2.088,0.361 -3.221,-0.701 -3.4,-3.184 -0.18,-2.482 0.449,-5.99 1.889,-10.523 l 38.1,-103.399 h -20.29 l -29.349,79.761 c -2.742,4.447 -5.755,9.114 -9.075,14.032 -0.289,0.433 -0.577,0.901 -0.863,1.403 -1.511,2.375 -3.599,5.308 -6.26,8.797 -2.663,3.491 -5.757,6.783 -9.282,9.876 -3.383,2.806 -6.999,4.336 -10.847,4.587 -3.85,0.253 -7.142,-1.169 -9.876,-4.264 -1.656,-2.302 -2.428,-5.27 -2.32,-8.904 0.108,-3.633 0.665,-7.302 1.673,-11.009 1.007,-3.705 1.978,-6.816 2.914,-9.336 1.438,3.453 3.759,5.342 6.962,5.666 3.201,0.324 6.655,-0.503 10.361,-2.482 3.705,-1.979 7.016,-4.749 9.93,-8.311 2.915,-3.563 4.857,-7.502 5.829,-11.819 0.971,-4.316 0.305,-8.597 -1.997,-12.844 -1.44,-2.59 -3.669,-4.568 -6.691,-5.937 -3.022,-1.365 -6.873,-2.05 -11.549,-2.05 -3.311,0 -6.405,0.701 -9.282,2.104 -2.879,1.403 -5.523,3.311 -7.933,5.72 -2.412,2.412 -4.587,5.2 -6.53,8.365 -3.526,5.758 -6.422,12.484 -8.689,20.184 -2.266,7.7 -3.435,15.039 -3.508,22.018 0.146,6.621 1.8,11.657 4.965,15.111 2.877,3.167 6.691,5.145 11.44,5.936 4.749,0.791 9.552,0.702 14.409,-0.27 4.857,-0.972 8.867,-2.607 12.035,-4.911 4.892,-3.886 9.425,-8.813 13.599,-14.786 0.906,-1.297 1.773,-2.593 2.625,-3.888 -1.098,4.999 -1.202,9.229 -0.304,12.684 1.187,4.57 3.616,7.79 7.285,9.66 3.813,2.016 7.447,2.607 10.901,1.781 3.454,-0.826 6.727,-2.607 9.822,-5.343 4.82,-4.102 9.318,-9.12 13.491,-15.057 2.344,-3.336 4.494,-6.659 6.488,-9.972 -0.501,3.445 -0.767,6.55 -0.767,9.27 0.146,6.621 1.8,11.657 4.965,15.111 2.877,3.167 6.692,5.146 11.441,5.936 4.749,0.791 9.552,0.702 14.409,-0.27 4.856,-0.972 8.867,-2.607 12.034,-4.911 4.893,-3.885 9.426,-8.813 13.6,-14.786 2.186,-3.129 4.205,-6.258 6.076,-9.387 -0.164,3.098 -0.072,6.085 0.292,8.955 0.505,3.958 1.549,7.484 3.131,10.577 1.583,3.095 3.794,5.542 6.638,7.339 2.842,1.8 6.35,2.698 10.523,2.698 3.237,0 6.241,-0.647 9.012,-1.942 2.77,-1.295 5.343,-3.076 7.718,-5.343 2.374,-2.267 4.515,-4.893 6.422,-7.879 1.905,-2.985 3.615,-6.169 5.127,-9.552 5.108,-1.296 9.965,-3.579 14.57,-6.854 1.878,-1.335 3.61,-2.799 5.213,-4.38 l -13.307,36.057 h 20.292 c 1.223,-2.445 2.984,-6.331 5.288,-11.656 2.229,-5.324 4.857,-11.279 7.879,-17.863 3.022,-6.584 6.242,-12.897 9.66,-18.942 3.417,-6.044 6.854,-10.955 10.308,-14.732 3.454,-3.777 6.728,-5.63 9.822,-5.559 0.432,0.072 0.845,0.199 1.241,0.378 0.395,0.181 0.664,0.485 0.81,0.917 0.574,1.8 0.448,4.174 -0.378,7.124 -0.828,2.951 -1.638,5.396 -2.429,7.339 -0.072,0.146 -0.108,0.253 -0.108,0.324 l -8.526,23.205 c -0.288,0.793 -0.504,1.512 -0.647,2.159 l -10.038,27.307 h 19.86 0.323 l 1.188,-3.238 c 1.079,-2.302 2.337,-5.108 3.777,-8.418 2.302,-5.324 4.965,-11.279 7.987,-17.863 3.022,-6.584 6.223,-12.897 9.605,-18.942 3.382,-6.044 6.8,-10.955 10.254,-14.732 3.454,-3.777 6.763,-5.63 9.93,-5.559 0.359,0.072 0.737,0.199 1.134,0.378 0.395,0.181 0.701,0.485 0.917,0.917 0.503,1.8 0.341,4.174 -0.485,7.124 -0.828,2.951 -1.638,5.396 -2.429,7.339 0,0.146 -0.037,0.253 -0.108,0.324 l -8.526,23.205 c -2.304,7.269 -2.843,13.187 -1.619,17.755 1.223,4.57 3.633,7.79 7.231,9.66 3.813,2.016 7.447,2.607 10.901,1.781 3.454,-0.826 6.763,-2.607 9.93,-5.343 4.749,-4.102 9.21,-9.12 13.384,-15.057 2.184,-3.107 4.212,-6.203 6.1,-9.29 -0.365,2.845 -0.568,5.637 -0.596,8.372 0.146,6.621 1.8,11.657 4.965,15.111 2.877,3.167 6.692,5.145 11.441,5.936 4.749,0.791 9.552,0.702 14.409,-0.27 4.856,-0.972 8.867,-2.607 12.034,-4.911 4.893,-3.886 9.426,-8.813 13.6,-14.786 4.172,-5.972 7.771,-11.927 10.793,-17.863 3.022,-5.936 5.252,-10.847 6.691,-14.732 0.861,-2.299 1.093,-3.738 0.698,-4.314 z m -49.703,10.793 c 0.071,-0.216 0.144,-0.432 0.216,-0.647 1.007,-2.518 2.302,-5.271 3.886,-8.257 1.582,-2.985 3.327,-5.791 5.234,-8.419 1.906,-2.626 3.867,-4.55 5.883,-5.774 2.59,-1.438 4.73,-1.673 6.422,-0.701 1.689,0.972 2.733,2.771 3.13,5.396 0.395,2.628 -0.037,5.649 -1.295,9.066 -1.26,3.418 -3.545,6.818 -6.854,10.199 -2.375,2.231 -4.895,3.653 -7.556,4.264 -2.663,0.612 -4.895,0.469 -6.691,-0.432 -1.799,-0.9 -2.59,-2.464 -2.375,-4.695 z m -365.782,0 c 0.071,-0.216 0.144,-0.432 0.216,-0.647 1.007,-2.518 2.302,-5.271 3.886,-8.257 1.582,-2.985 3.327,-5.791 5.235,-8.419 1.905,-2.626 3.867,-4.55 5.882,-5.774 2.59,-1.438 4.73,-1.673 6.422,-0.701 1.689,0.972 2.733,2.771 3.13,5.396 0.395,2.628 -0.037,5.649 -1.295,9.066 -1.26,3.418 -3.545,6.818 -6.854,10.199 -2.375,2.231 -4.894,3.653 -7.555,4.264 -2.663,0.612 -4.894,0.469 -6.692,-0.432 -1.8,-0.9 -2.591,-2.464 -2.375,-4.695 z m 172.368,29.357 c -1.44,2.304 -2.879,4.102 -4.317,5.396 -1.44,1.296 -2.844,1.943 -4.21,1.943 -1.367,0 -2.32,-0.702 -2.86,-2.104 -0.539,-1.403 -0.773,-3.328 -0.701,-5.774 0.07,-2.445 0.413,-5.217 1.025,-8.312 0.61,-3.093 1.457,-6.367 2.536,-9.821 3.093,5.542 7.303,9.139 12.628,10.793 -1.295,2.951 -2.662,5.577 -4.101,7.879 z m 13.869,-42.201 c -0.396,3.311 -1.08,6.999 -2.051,11.063 -0.972,4.066 -2.142,8.187 -3.508,12.358 -3.886,-1.87 -6.818,-4.334 -8.797,-7.393 -1.979,-3.058 -2.501,-6.35 -1.564,-9.876 1.511,-3.238 3.057,-6.152 4.641,-8.743 1.582,-2.59 3.13,-4.657 4.642,-6.206 1.511,-1.546 2.949,-2.32 4.316,-2.32 1.223,0 2.014,1.025 2.375,3.076 0.359,2.051 0.341,4.732 -0.054,8.041 z" />
	</g>
	<g
   id="XMLID_23_"
   style="fill:#ffffff;stroke:#000000">
		<g
   id="XMLID_38_"
   style="fill:#ffffff;stroke:#000000">
			<path
   id="XMLID_41_"
   style="fill:#ffffff;stroke:#000000"
   d="m 1026.399,561.096 c 36.446,33.568 65.061,71.737 73.396,122.29 2.346,14.227 4.739,14.99 16.773,6.801 32.384,-22.034 66.086,-41.019 105.399,-47.676 14.842,-2.513 29.592,-2.622 43.908,2.634 13.516,4.963 20.89,19.467 17.129,32.907 -3.773,13.485 -19.09,23.317 -32.623,20.818 -7.823,-1.445 -13.118,-6 -14.953,-13.806 -1.153,-4.905 -0.794,-10.127 4.565,-12.375 5.366,-2.251 8.135,1.646 9.815,6.097 2.018,5.346 5.537,7.717 11.2,6.177 6.07,-1.652 8.112,-6.294 7.932,-11.946 -0.273,-8.569 -4.771,-14.232 -12.925,-16.883 -10.536,-3.426 -21.199,-3.856 -32.039,-1.459 -40.227,8.896 -76.212,26.736 -108.945,51.473 -2.877,2.174 -5.603,4.562 -8.566,6.608 -8.477,5.853 -14.368,4.015 -16.708,-6.093 -2.89,-12.483 -3.884,-25.439 -7.209,-37.783 -15.479,-57.458 -49.045,-100.27 -104.461,-123.814 -23.068,-9.8 -43.865,-3.304 -54.19,14.129 -8.656,14.614 -0.757,32.207 15.936,35.493 10.173,2.003 15.121,-1.983 14.861,-12.192 -0.102,-3.989 -1.419,-8.719 4.452,-9.284 5.201,-0.5 7.876,3.185 9.317,7.762 2.747,8.724 -3.13,19.083 -13.757,23.948 -12.219,5.595 -23.802,3.575 -33.786,-4.713 -10.691,-8.874 -17.227,-19.94 -13.966,-34.821 5.093,-23.236 26.461,-39.452 50.244,-37.856 20.788,1.394 45.922,13.586 69.201,33.564 z" />
			<path
   id="XMLID_40_"
   style="fill:#ffffff;stroke:#000000"
   d="m 1036.609,650.384 c -8.488,-6.334 -17.611,-10.949 -28.474,-11.547 -6.92,-0.381 -13.17,-2.65 -13.22,-10.87 -0.052,-8.701 5.741,-12.729 13.804,-13.712 9.225,-1.125 18.029,0.995 24.493,7.477 15.79,15.833 27.385,34.379 32.603,56.418 0.789,3.333 2.535,8.261 -1.611,9.632 -4.504,1.49 -5.177,-3.953 -6.595,-6.932 -5.376,-11.298 -11.953,-21.712 -21,-30.466 z" />
			<path
   id="XMLID_39_"
   style="fill:#ffffff;stroke:#000000"
   d="m 1126.145,655.005 c 9.009,-9.111 16.688,-17.215 24.752,-24.918 5.86,-5.599 12.616,-9.963 21.233,-9.469 5.543,0.318 11.812,0.295 13.444,7.354 1.462,6.324 -2.151,12.778 -7.184,13.637 -21.338,3.641 -38.019,15.207 -54.051,28.466 -1.481,1.224 -3.831,1.758 -5.376,-0.17 -1.458,-1.82 -0.473,-3.883 0.58,-5.501 2.383,-3.66 5.014,-7.16 6.602,-9.399 z" />
		</g>
	</g>
	<g
   id="XMLID_4252_"
   style="fill:#ffffff;stroke:#000000">
		<g
   id="XMLID_34_"
   style="fill:#ffffff;stroke:#000000">
			<path
   id="XMLID_37_"
   style="fill:#ffffff;stroke:#000000"
   d="m 470.398,552.683 c -35.115,34.958 -62.226,74.209 -68.592,125.048 -1.792,14.307 -4.153,15.163 -16.496,7.447 -33.216,-20.76 -67.629,-38.422 -107.171,-43.547 -14.929,-1.935 -29.671,-1.471 -43.773,4.337 -13.313,5.484 -20.118,20.263 -15.838,33.548 4.294,13.328 19.981,22.558 33.406,19.535 7.761,-1.747 12.875,-6.505 14.406,-14.376 0.962,-4.946 0.4,-10.15 -5.043,-12.188 -5.45,-2.041 -8.065,1.96 -9.571,6.474 -1.809,5.421 -5.233,7.927 -10.951,6.607 -6.13,-1.415 -8.35,-5.974 -8.39,-11.629 -0.06,-8.573 4.215,-14.406 12.26,-17.373 10.395,-3.833 21.033,-4.677 31.958,-2.702 40.542,7.327 77.193,23.757 110.862,47.203 2.96,2.061 5.776,4.341 8.816,6.271 8.698,5.519 14.513,3.454 16.459,-6.737 2.403,-12.586 2.893,-25.57 5.736,-38.034 13.236,-58.016 45.115,-102.099 99.574,-127.777 22.67,-10.689 43.704,-5.005 54.698,12.014 9.217,14.267 2.007,32.153 -14.545,36.085 -10.088,2.396 -15.186,-1.394 -15.323,-11.606 -0.053,-3.99 1.079,-8.768 -4.809,-9.104 -5.216,-0.298 -7.746,3.489 -9.009,8.118 -2.407,8.824 3.869,18.947 14.676,23.396 12.427,5.116 23.922,2.648 33.578,-6.022 10.339,-9.283 16.44,-20.594 12.603,-35.337 -5.991,-23.021 -27.974,-38.395 -51.676,-35.876 -20.717,2.199 -45.36,15.358 -67.845,36.225 z" />
			<path
   id="XMLID_36_"
   style="fill:#ffffff;stroke:#000000"
   d="m 463.663,642.3 c 8.236,-6.659 17.172,-11.625 28.004,-12.644 6.9,-0.649 13.057,-3.16 12.788,-11.375 -0.286,-8.696 -6.231,-12.496 -14.326,-13.166 -9.262,-0.766 -17.977,1.695 -24.184,8.423 -15.164,16.435 -26.029,35.416 -30.388,57.642 -0.659,3.361 -2.213,8.353 1.983,9.562 4.559,1.314 5.02,-4.151 6.321,-7.183 4.934,-11.499 11.102,-22.16 19.802,-31.259 z" />
			<path
   id="XMLID_35_"
   style="fill:#ffffff;stroke:#000000"
   d="m 374.374,650.395 c -9.356,-8.754 -17.344,-16.554 -25.701,-23.938 -6.073,-5.367 -12.993,-9.465 -21.585,-8.637 -5.526,0.533 -11.791,0.754 -13.148,7.87 -1.216,6.376 2.645,12.685 7.708,13.348 21.463,2.81 38.581,13.719 55.116,26.346 1.527,1.166 3.897,1.608 5.365,-0.379 1.386,-1.875 0.322,-3.899 -0.793,-5.475 -2.523,-3.565 -5.288,-6.96 -6.962,-9.135 z" />
		</g>
	</g>
	<g
   id="XMLID_4247_"
   style="fill:#ffffff;stroke:#000000">
		<path
   id="XMLID_4254_"
   style="fill:#ffffff;stroke:#000000"
   d="m 770.116,622.184 c 3.152,0.266 3.707,-2.515 4.765,-4.476 6.576,-12.197 15.658,-22.332 25.937,-31.439 8.457,-7.493 17.454,-14.333 26.461,-21.154 10.633,-8.052 20.944,-16.454 29.42,-26.887 8.982,-11.058 13.928,-23.742 15.648,-37.475 -0.026,-4.854 -0.948,-9.042 -4.571,-12.184 -7.327,-6.354 -17.615,-6.576 -25.065,-0.371 -2.45,2.04 -4.617,4.435 -6.814,6.761 -10.332,10.939 -18.964,23.238 -28.085,35.147 -8.123,10.607 -15.267,21.813 -21.107,33.847 -7.521,15.496 -13.328,31.694 -19.683,47.668 -0.507,1.274 -0.701,2.594 -0.601,3.965 0.252,3.5 1.813,6.439 3.695,6.598 z" />
		<path
   id="XMLID_4541_"
   style="fill:#ffffff;stroke:#000000"
   d="m 678.327,549.551 c 4.498,4.313 8.958,8.667 13.457,12.98 14.832,14.22 29.671,28.434 44.515,42.642 3.655,3.498 6.386,7.406 5.975,12.801 -0.051,0.668 -0.041,1.358 0.07,2.017 0.392,2.322 1.577,2.878 3.472,1.679 3.163,-2 3.878,-3.852 2.598,-7.693 -4.367,-13.105 -8.739,-26.209 -13.237,-39.269 -5.983,-17.371 -12.398,-34.575 -20.765,-50.976 -5.269,-10.329 -12.1,-19.408 -21.299,-26.617 -5.65,-4.428 -12.025,-6.642 -19.165,-6.73 -1.01,-0.022 -2.024,-0.099 -3.031,-0.056 -6.878,0.295 -10.066,2.654 -12.244,9.225 -1.708,5.153 -2.587,10.456 -2.457,15.906 0.09,3.79 1.054,7.266 3.192,10.472 5.62,8.429 11.574,16.576 18.919,23.619 z" />
		<path
   id="XMLID_4544_"
   style="fill:#ffffff;stroke:#000000"
   d="m 779.869,478.626 c 0.631,-7.667 -1.031,-16.007 -3.837,-24.259 -4.231,-12.446 -15.438,-16.575 -24.765,-16.129 -3.526,0.168 -6.156,1.533 -7.779,4.695 -7.541,14.691 -12.262,29.946 -9.277,46.725 2.746,15.437 5.128,30.926 7.101,46.484 1.505,11.873 3.321,23.707 4.856,35.577 0.603,4.663 2.043,8.863 5.341,12.281 1.761,1.825 4.278,1.431 5.312,-0.854 0.402,-0.889 0.496,-1.96 0.548,-2.958 0.263,-5.086 1.371,-10.016 2.677,-14.908 4.394,-16.454 8.945,-32.867 13.169,-49.364 3.049,-11.906 6.539,-23.764 6.654,-37.29 z" />
		<path
   id="XMLID_4548_"
   style="fill:#ffffff;stroke:#000000"
   d="m 745.113,635.89 c -12.176,-10.384 -24.486,-20.617 -36.536,-31.147 -9.763,-8.532 -19.098,-17.555 -28.852,-26.099 -9.728,-8.523 -20.534,-15.24 -33.301,-18.402 -5.984,-1.482 -11.092,-0.095 -15.234,4.288 -7.573,8.012 -10.395,17.615 -8.341,28.415 2.129,11.195 9.32,18.391 19.368,23.024 5.519,2.544 11.315,4.345 17.114,6.129 24.492,7.534 49.522,12.949 74.389,19.016 5.128,1.251 9.926,0.659 15.194,-0.573 -0.693,-2.589 -2.427,-3.479 -3.801,-4.651 z" />
		<path
   id="XMLID_4550_"
   style="fill:#ffffff;stroke:#000000"
   d="m 892.988,571.799 c -3.285,-4.41 -7.228,-7.981 -12.81,-8.023 -8.773,-0.066 -17.557,0.679 -25.487,5.102 -28.562,15.931 -54.561,35.378 -78.608,57.482 -3.618,3.326 -6.318,7.336 -8.361,12.188 0.925,0.319 1.271,0.576 1.529,0.507 9.271,-2.486 18.712,-4.446 27.485,-8.519 15.77,-7.322 31.908,-13.703 48.527,-18.818 12.565,-3.867 25.121,-7.786 37.802,-11.239 12.674,-3.451 15.767,-20.835 9.923,-28.68 z" />
	</g>
	<g
   id="XMLID_4258_"
   style="fill:#ffffff;stroke:#000000">
		<path
   id="XMLID_4281_"
   style="fill:#ffffff;stroke:#000000"
   d="m 738.283,898.582 c -2.787,-0.235 -3.278,2.224 -4.213,3.958 -5.815,10.785 -13.845,19.746 -22.933,27.798 -7.478,6.626 -15.433,12.674 -23.396,18.704 -9.402,7.12 -18.518,14.548 -26.013,23.774 -7.942,9.777 -12.315,20.992 -13.836,33.135 0.023,4.292 0.838,7.995 4.042,10.773 6.478,5.618 15.575,5.815 22.163,0.328 2.166,-1.804 4.082,-3.921 6.025,-5.978 9.135,-9.672 16.768,-20.547 24.833,-31.077 7.182,-9.379 13.499,-19.287 18.663,-29.928 6.65,-13.702 11.785,-28.024 17.404,-42.148 0.448,-1.126 0.62,-2.294 0.532,-3.505 -0.228,-3.095 -1.608,-5.693 -3.271,-5.834 z" />
		<path
   id="XMLID_4276_"
   style="fill:#ffffff;stroke:#000000"
   d="m 819.442,962.804 c -3.977,-3.814 -7.921,-7.663 -11.899,-11.477 -13.114,-12.574 -26.235,-25.141 -39.36,-37.704 -3.231,-3.093 -5.646,-6.548 -5.283,-11.318 0.045,-0.59 0.036,-1.201 -0.062,-1.783 -0.346,-2.053 -1.394,-2.545 -3.07,-1.484 -2.796,1.769 -3.429,3.406 -2.297,6.802 3.861,11.587 7.727,23.174 11.704,34.721 5.29,15.359 10.962,30.571 18.36,45.073 4.659,9.133 10.699,17.16 18.833,23.534 4.996,3.915 10.632,5.873 16.945,5.951 0.893,0.019 1.789,0.087 2.68,0.049 6.082,-0.261 8.901,-2.346 10.826,-8.157 1.51,-4.556 2.287,-9.245 2.172,-14.064 -0.08,-3.351 -0.932,-6.424 -2.822,-9.259 -4.968,-7.453 -10.232,-14.657 -16.727,-20.884 z" />
		<path
   id="XMLID_4270_"
   style="fill:#ffffff;stroke:#000000"
   d="m 729.659,1025.515 c -0.558,6.779 0.912,14.153 3.392,21.45 3.741,11.005 13.65,14.655 21.897,14.261 3.118,-0.149 5.443,-1.355 6.878,-4.151 6.668,-12.99 10.842,-26.478 8.203,-41.315 -2.428,-13.649 -4.535,-27.345 -6.279,-41.101 -1.331,-10.498 -2.936,-20.962 -4.294,-31.457 -0.533,-4.123 -1.806,-7.836 -4.722,-10.859 -1.557,-1.614 -3.783,-1.265 -4.697,0.755 -0.355,0.786 -0.439,1.733 -0.485,2.615 -0.233,4.497 -1.212,8.856 -2.367,13.182 -3.885,14.548 -7.909,29.061 -11.644,43.647 -2.695,10.529 -5.781,21.014 -5.882,32.973 z" />
		<path
   id="XMLID_4261_"
   style="fill:#ffffff;stroke:#000000"
   d="m 760.39,886.463 c 10.766,9.182 21.65,18.229 32.305,27.54 8.633,7.544 16.886,15.522 25.51,23.076 8.602,7.536 18.156,13.475 29.444,16.271 5.291,1.311 9.807,0.084 13.47,-3.791 6.696,-7.084 9.191,-15.575 7.375,-25.124 -1.883,-9.899 -8.24,-16.262 -17.125,-20.358 -4.88,-2.25 -10.005,-3.842 -15.132,-5.419 -21.656,-6.661 -43.787,-11.45 -65.775,-16.814 -4.534,-1.106 -8.777,-0.582 -13.435,0.506 0.615,2.29 2.148,3.077 3.363,4.113 z" />
		<path
   id="XMLID_4259_"
   style="fill:#ffffff;stroke:#000000"
   d="m 629.639,943.133 c 2.905,3.899 6.391,7.057 11.326,7.094 7.758,0.058 15.524,-0.6 22.535,-4.511 25.254,-14.086 48.243,-31.281 69.505,-50.825 3.199,-2.941 5.586,-6.487 7.393,-10.777 -0.818,-0.282 -1.124,-0.509 -1.352,-0.448 -8.197,2.198 -16.545,3.931 -24.302,7.533 -13.944,6.474 -28.213,12.116 -42.908,16.639 -11.11,3.419 -22.212,6.884 -33.424,9.938 -11.205,3.049 -13.94,18.42 -8.773,25.357 z" />
	</g>
</g>
<g
   id="XMLID_2_">
</g>
<g
   id="XMLID_3_">
</g>
<g
   id="XMLID_4_">
</g>
<g
   id="XMLID_5_">
</g>
<g
   id="XMLID_6_">
</g>
<g
   id="XMLID_7_">
</g>
</svg>
